<svg width="34" height="34" viewBox="0 0 34 34" fill="none" xmlns="http://www.w3.org/2000/svg">
<path d="M21.0474 24.1995C23.6869 23.887 26.2803 23.2641 28.7739 22.3437C26.6621 20.0045 25.4953 16.9639 25.4999 13.8125V12.8208V12.75C25.4999 10.4957 24.6044 8.33365 23.0104 6.73959C21.4163 5.14553 19.2543 4.25 16.9999 4.25C14.7456 4.25 12.5836 5.14553 10.9895 6.73959C9.39548 8.33365 8.49994 10.4957 8.49994 12.75V13.8125C8.50422 16.9641 7.33684 20.0047 5.22461 22.3437C7.67969 23.2503 10.2679 23.8808 12.9525 24.1995M21.0474 24.1995C18.3585 24.5184 15.6414 24.5184 12.9525 24.1995M21.0474 24.1995C21.2515 24.8368 21.3023 25.5133 21.1955 26.1739C21.0888 26.8346 20.8275 27.4607 20.4331 28.0012C20.0386 28.5418 19.522 28.9816 18.9255 29.2848C18.3289 29.588 17.6691 29.746 16.9999 29.746C16.3307 29.746 15.671 29.588 15.0744 29.2848C14.4778 28.9816 13.9613 28.5418 13.5668 28.0012C13.1724 27.4607 12.9111 26.8346 12.8044 26.1739C12.6976 25.5133 12.7484 24.8368 12.9525 24.1995" stroke="#1E2AE3" stroke-width="1.5" stroke-linecap="round" stroke-linejoin="round"/>
<circle r="3.96667" transform="matrix(-1 0 0 1 24.3666 8.50011)" fill="#FF0000"/>
</svg>
