<svg width="26" height="28" viewBox="0 0 26 28" fill="none" xmlns="http://www.w3.org/2000/svg">
<path d="M16.8228 20.9495C19.4623 20.637 22.0557 20.0141 24.5493 19.0937C22.4375 16.7545 21.2707 13.7139 21.2753 10.5625V9.57083V9.5C21.2753 7.24566 20.3798 5.08365 18.7857 3.48959C17.1917 1.89553 15.0297 1 12.7753 1C10.521 1 8.35899 1.89553 6.76493 3.48959C5.17087 5.08365 4.27533 7.24566 4.27533 9.5V10.5625C4.27961 13.7141 3.11223 16.7547 1 19.0937C3.45508 20.0003 6.04333 20.6308 8.72792 20.9495M16.8228 20.9495C14.1339 21.2684 11.4168 21.2684 8.72792 20.9495M16.8228 20.9495C17.0269 21.5868 17.0777 22.2633 16.9709 22.9239C16.8642 23.5846 16.6029 24.2107 16.2085 24.7512C15.814 25.2918 15.2974 25.7316 14.7009 26.0348C14.1043 26.338 13.4445 26.496 12.7753 26.496C12.1061 26.496 11.4464 26.338 10.8498 26.0348C10.2532 25.7316 9.73668 25.2918 9.34221 24.7512C8.94774 24.2107 8.6865 23.5846 8.57975 22.9239C8.473 22.2633 8.52377 21.5868 8.72792 20.9495" stroke="#1E2AE3" stroke-width="1.5" stroke-linecap="round" stroke-linejoin="round"/>
</svg>
