<svg width="649" height="747" viewBox="0 0 649 747" fill="none" xmlns="http://www.w3.org/2000/svg">
<path d="M249.929 373.819C183.189 313.585 126.153 257.423 63.9291 207.726C28.0437 179.07 6.09042 145.439 18.7104 104.351C28.575 72.2313 51.3718 36.9353 78.8411 19.2153C111.289 -1.72205 150.169 11.7934 178.701 42.7566C224.217 92.1726 270.228 141.153 316.754 189.61C327.707 201.011 341.557 209.626 358.806 223.261C375.749 200.87 391.233 183.787 402.806 164.354C421.728 132.599 436.801 98.5513 455.828 66.8593C489.448 10.8539 558.104 -15.4954 600.814 9.41662C653.012 39.8646 665.085 121.057 623.074 179.763C601.616 209.747 573.804 235.127 549.757 263.362C525.997 291.258 503.372 320.122 475.112 354.883C503.508 385.023 527.732 411.623 552.95 437.243C576.341 461.003 604.169 481.15 624.076 507.41C661.904 557.311 645.326 630.259 591.997 665.53C532.961 704.566 479.773 690.994 440.65 627.285C421.317 595.821 402.098 564.238 381.202 533.815C376.109 526.399 364.624 523.378 354.442 517.367C269.994 582.149 217.389 685.487 119.642 738.341C88.4078 755.231 49.6264 745.762 29.4918 716.518C28.3772 714.903 27.2991 713.284 26.221 711.659C-12.883 651.836 -9.16438 635.872 43.549 583.913C110.341 518.049 175.128 450.167 249.936 373.82L249.929 373.819Z" fill="#3835CE"/>
</svg>
