<svg width="710" height="635" viewBox="0 0 710 635" fill="none" xmlns="http://www.w3.org/2000/svg">
<path d="M392.003 0C227.736 0 91.8427 125.437 76.1627 285.973H31.36C14.188 285.973 0 300.161 0 317.333C0 334.505 14.188 348.693 31.36 348.693H273.28C285.228 348.693 295.681 341.975 300.905 331.521L327.041 280.751L406.932 435.311C412.161 445.764 422.615 452.483 434.557 452.483C446.505 452.483 456.959 445.764 462.183 435.311L506.985 347.951H551.788C568.96 347.951 583.148 333.763 583.148 316.591C583.148 299.419 568.96 285.231 551.788 285.231H488.319C476.371 285.231 465.917 291.949 460.693 302.403L434.557 353.173L354.667 199.36C344.214 178.453 309.864 178.453 299.412 199.36L254.609 286.72H138.88C154.563 160.532 262.077 62.72 392 62.72C532.373 62.72 647.36 176.96 647.36 318.08C647.36 459.2 532.376 572.693 392 572.693C285.973 572.693 194.133 506.985 156.053 414.4H89.6C130.668 542.077 250.88 634.667 392 634.667C566.72 634.667 709.333 492.053 709.333 317.333C709.333 142.613 566.72 0 392 0H392.003Z" fill="white"/>
</svg>
