<svg width="735" height="728" viewBox="0 0 735 728" fill="none" xmlns="http://www.w3.org/2000/svg">
<path d="M511.527 205.593H220.327C215.681 205.593 212.03 201.942 212.03 197.296C212.03 192.65 215.681 188.999 220.327 188.999H511.527C516.173 188.999 519.824 192.65 519.824 197.296C519.824 201.942 516.173 205.593 511.527 205.593Z" fill="white"/>
<path d="M511.527 268.633H220.327C215.681 268.633 212.03 264.982 212.03 260.336C212.03 255.69 215.681 252.039 220.327 252.039L511.527 252.044C516.173 252.044 519.824 255.695 519.824 260.341C519.824 264.987 516.173 268.633 511.527 268.633Z" fill="white"/>
<path d="M511.527 331.86H220.327C215.681 331.86 212.03 328.209 212.03 323.563C212.03 318.917 215.681 315.266 220.327 315.266L511.527 315.271C516.173 315.271 519.824 318.922 519.824 323.568C519.824 328.209 516.173 331.86 511.527 331.86Z" fill="white"/>
<path d="M511.527 394.913H220.327C215.681 394.913 212.03 391.262 212.03 386.616C212.03 381.97 215.681 378.319 220.327 378.319H511.527C516.173 378.319 519.824 381.97 519.824 386.616C519.824 391.262 516.173 394.913 511.527 394.913Z" fill="white"/>
<path d="M259.807 669.686H170.208C165.562 669.686 161.911 666.035 161.911 661.389V520.843C161.911 516.197 165.562 512.546 170.208 512.546C174.854 512.546 178.505 516.197 178.505 520.843V653.088H259.808C264.454 653.088 268.105 656.739 268.105 661.385C268.105 666.031 264.454 669.682 259.808 669.682L259.807 669.686Z" fill="white"/>
<path d="M346.26 668.353C310.588 668.353 281.713 639.317 281.713 603.806V575.932C281.713 540.26 310.749 511.385 346.26 511.385C381.771 511.385 410.807 540.421 410.807 575.932V603.806C410.968 639.317 381.932 668.353 346.26 668.353ZM346.26 527.806C319.713 527.806 298.307 549.38 298.307 575.76V603.634C298.307 630.181 319.88 651.588 346.26 651.588C372.64 651.588 394.213 630.014 394.213 603.634V575.76C394.38 549.38 372.807 527.806 346.26 527.806Z" fill="white"/>
<path d="M535.753 667.193H481.499C460.759 667.193 443.999 650.433 443.999 629.693V547.557C443.999 526.817 460.759 510.057 481.499 510.057H535.753C556.493 510.057 573.253 526.817 573.253 547.557C573.253 552.203 569.602 555.854 564.957 555.854C560.311 555.854 556.66 552.203 556.66 547.557C556.66 536.109 547.368 526.65 535.753 526.65H481.498C470.05 526.65 460.592 535.942 460.592 547.557L460.586 629.693C460.586 641.141 469.878 650.6 481.493 650.6H535.748C547.196 650.6 556.654 641.308 556.654 629.693V610.281H532.758C528.113 610.281 524.461 606.63 524.461 601.984C524.461 597.338 528.113 593.687 532.758 593.687H564.946C569.592 593.687 573.243 597.338 573.243 601.984L573.249 629.692C573.249 650.265 556.493 667.193 535.753 667.193Z" fill="white"/>
<path d="M634.14 468.58C629.494 468.58 625.843 464.929 625.843 460.283V143.696L498.744 16.5973H162.904C131.544 16.5973 105.992 42.1493 105.992 73.5093V460.283C105.992 464.929 102.341 468.58 97.6955 468.58C93.0496 468.58 89.3986 464.929 89.3986 460.283V73.5093C89.3986 33.0253 122.42 0.0039978 162.904 0.0039978H502.051C504.207 0.0039978 506.363 0.832118 507.858 2.4936L639.937 134.572C641.431 136.067 642.426 138.223 642.426 140.38V460.446C642.426 464.92 638.608 468.571 634.129 468.571L634.14 468.58Z" fill="white"/>
<path d="M634.14 148.5H558.312C522.801 148.5 493.932 119.63 493.932 84.1196V8.29693C493.932 3.65107 497.583 0 502.229 0C506.875 0 510.526 3.65107 510.526 8.29693V84.2916C510.526 110.672 531.933 132.078 558.313 132.078H634.141C638.787 132.078 642.438 135.729 642.438 140.375C642.438 145.016 638.619 148.5 634.14 148.5Z" fill="white"/>
<path d="M661.02 727.593H74.1401C33.8227 727.593 0.801392 694.738 0.801392 654.254V525.166C0.801392 484.849 33.6561 451.828 74.1401 451.828H661.02C701.337 451.828 734.359 484.682 734.359 525.166V654.254C734.359 694.738 701.504 727.593 661.02 727.593ZM74.1401 468.58C42.9467 468.58 17.3947 493.965 17.3947 525.325V654.413C17.3947 685.606 42.7801 711.158 74.1401 711.158H661.02C692.213 711.158 717.765 685.773 717.765 654.413V525.325C717.765 494.132 692.38 468.58 661.02 468.58H74.1401Z" fill="white"/>
</svg>
