<?xml version="1.0" encoding="UTF-8"?><svg xmlns="http://www.w3.org/2000/svg" viewBox="0 0 163.49 163.49"><defs><style>.f,.g{fill:#fff;}.h{stroke-width:1.37px;}.h,.g,.i,.j{stroke-miterlimit:10;}.h,.i{fill:#3835ce;}.h,.i,.j{stroke:#fff;}.g{stroke:#000;}.g,.j{stroke-width:.24px;}.k{fill:#42210b;}.l{fill:#1b1464;}.m{fill:#fbb03b;}.n{fill:red;}</style></defs><g id="a"/><g id="b"><g id="c"><g><path class="i" d="M9.03,132.1C.62,113.2-.67,84.24,1.81,60.47,4.81,36.3,11.58,17.32,31.39,9.03,50.29,.62,79.25-.67,103.02,1.81c24.17,3,43.15,9.77,51.45,29.58,8.4,18.91,9.7,47.86,7.22,71.63-3,24.17-9.77,43.16-29.58,51.45-18.91,8.4-47.86,9.7-71.63,7.22-24.17-3-43.16-9.77-51.45-29.58Z"/><path class="h" d="M9.03,132.1C.62,113.2-.67,84.24,1.81,60.47,4.81,36.3,11.58,17.32,31.39,9.03,50.29,.62,79.25-.67,103.02,1.81c24.17,3,43.15,9.77,51.45,29.58,8.4,18.91,9.7,47.86,7.22,71.63-3,24.17-9.77,43.16-29.58,51.45-18.91,8.4-47.86,9.7-71.63,7.22-24.17-3-43.16-9.77-51.45-29.58Z"/></g><g id="d"><path class="l" d="M123.72,68.81c-.52-5.79-1.94-11.47-4.01-16.54-.37-.92-.75-1.82-1.16-2.68-.29-.62-.57-1.22-.88-1.82-.03-.06-.06-.12-.07-.16-.22-.44-.44-.84-.66-1.26-.31-.6-.63-1.16-.97-1.74-.32-.58-.66-1.14-1.02-1.7-.34-.54-.68-1.08-1.05-1.62-.03-.06-.06-.1-.1-.16-.19-.28-.38-.58-.6-.86-.1-.16-.22-.34-.34-.5-.01-.02-.04-.06-.06-.08-.1-.14-.21-.28-.31-.42-.12-.16-.25-.32-.37-.48-.15-.22-.31-.42-.47-.62-.09-.12-.19-.24-.28-.36-7.07-8.87-16.29-14.52-26.46-15.3-.1,.02-.21,.04-.29,.08-.04,.02-.09,.04-.13,.04-1.93,.7-2.61,2.76-3.34,5.07-.62,1.92-1.24,3.84-1.86,5.77-.24,.74-.49,1.48-.71,2.24-.22,.72-.41,1.48-.55,2.24-2.43-3-5.66-4.81-9.19-4.81-6.81,0-12.45,6.73-13.49,15.56-.09-.08-.19-.12-.29-.14-.28-.04-.56,.14-.81,.32-.69,.46-1.37,1-2.03,1.58-2.27,1.96-4.29,4.47-5.94,7.35-1.25,2.22-2.28,4.65-3.24,7.13-1.25,3.22-2.39,6.55-2.99,10.09-.19,1.16-.32,2.32-.4,3.48v.18c-.03,.78-.04,1.56-.04,2.34,.06,6.57,1.93,13.14,5.2,18.04,4.24,6.41,10.69,9.93,17.04,9.59,2.05-.1,4.15-.62,5.88-2.04,.34,12.88,9.74,21.69,17.81,25.85,1.93,.98,3.9,1.78,5.88,2.56,1.8,.72,3.67,1.56,5.57,1.34,.07,.24,.27,.4,.47,.36,.62-.08,1.47-.38,2.3-.76,.4-.24,.81-.5,1.21-.74,.04-.04,.09-.06,.15-.1,.04-.04,.09-.06,.13-.1,.37-.24,.74-.48,1.1-.74,.21-.14,.41-.3,.62-.44,.35-.26,.71-.52,1.06-.82,.27-.2,.55-.42,.81-.64,.25-.2,.47-.38,.71-.58,.09-.08,.19-.16,.29-.26,4.1-3.68,7.69-8.27,10.67-13.6,.57-2.64-1.34-6.23-2.4-8.05-.66-1.16-2.02-4-3.21-4.07-.96-.06-1.13,2.1-1.27,2.98-.69,4.37-2.4,8.15-4.21,11.83-1.72,3.5-3.74,6.95-6.39,9.23l-.13,.12c-.21,.14-.41,.3-.62,.46,0-1.72-.07-3.42-.12-5.13-.1-3.34-.1-6.59-.49-9.89-.83-7.01-2.58-13.86-5.35-19.88-1.89-4.11-4.61-7.21-7.06-10.67-1.36-1.94-2.98-4.51-5.19-3.78-.04,.02-.09,.04-.12,.06,.13-.12,.25-.24,.32-.34,.32-.22,.62-.44,.9-.66,1.59-1.18,3.37-1.7,5.17-1.98,4.92-.8,9.93,.24,14.63,2.42,2.58,1.2,5.23,2.48,7.69,4.17,1.27,.86,2.46,1.86,3.62,2.94,.21,.2,2.33,2.14,2.4,1.6,.27-2.06-.9-4.45-1.68-6.07-.87-1.86-1.94-3.52-3.03-5.13-2.33-3.48-4.82-6.81-7.7-9.43-3.43-3.1-7.54-5.21-11.8-6.29-2.65-.68-5.36-.94-8.06-.74-.1,0-.21,.02-.32,.02,4.01-.56,8.12-.1,11.92,1.52,.24,.1,.46,.18,.68,.28,3.23,1.52,6.53,3.82,9.35,6.43,1.52,1.42,2.93,3.02,4.3,4.67,2.4,2.94,4.67,6.07,6.79,9.39,1.05,1.64,2.11,3.3,3.01,5.07,.77,1.48,1.58,2.92,2.39,4.37,.81,1.44,1.36-2.06,1.46-2.66,.72-4.23,1.43-8.47,1.75-12.72,.04-.56,.07-1.1,.1-1.66,.13-2.5,.13-5.01-.1-7.55Z"/><path class="l" d="M84.9,22.52c-.1,.03-.2,.06-.29,.08-.04,.02-.09,.04-.14,.05-1.93,.7-2.6,2.76-3.34,5.07-.62,1.93-1.23,3.85-1.85,5.77-.23,.74-.49,1.48-.71,2.23-.22,.73-.41,1.47-.55,2.24-2.43-2.99-5.65-4.82-9.19-4.82-6.8,0-12.44,6.74-13.49,15.56-.09-.07-.18-.11-.29-.13-.28-.04-.55,.13-.81,.31-.7,.47-1.37,1-2.03,1.58-2.28,1.96-4.29,4.48-5.93,7.37-1.26,2.22-2.3,4.64-3.25,7.12-1.24,3.22-2.39,6.55-2.98,10.09-.19,1.15-.32,2.32-.4,3.48,1.21-31.27,19.93-56.1,42.85-56.1,.81,0,1.61,.03,2.41,.09Z"/><path class="l" d="M105.52,131.81c-6.66,5.86-14.55,9.25-23.03,9.25-23.7,0-42.92-26.55-42.92-59.32,0-.23,0-.47,0-.7,.06,6.57,1.94,13.13,5.2,18.04,4.25,6.4,10.7,9.92,17.05,9.59,2.04-.1,4.15-.63,5.88-2.05,.33,12.88,9.73,21.71,17.8,25.85,1.93,.98,3.9,1.79,5.87,2.57,1.8,.71,3.67,1.56,5.58,1.33,.08,.24,.26,.4,.47,.37,.62-.08,1.46-.38,2.3-.77,2.01-1.19,3.94-2.58,5.78-4.15Z"/><path class="n" d="M114.67,89.3c-.08,.54-2.19-1.39-2.41-1.59-1.16-1.08-2.36-2.08-3.62-2.94-2.47-1.69-5.12-2.98-7.7-4.16-4.69-2.18-9.71-3.22-14.63-2.43-1.79,.29-3.57,.81-5.17,1.98-.28,.21-.58,.44-.9,.65-1.14,.76-2.45,1.35-3.62,.52-.9-.64-1.48-1.78-1.85-3.02-.79-2.6-.76-5.49-.96-8.23-.03-.38-.03-.76,0-1.14,.09-1.58,.59-3.12,1.35-4.31,.14-.22,.29-.43,.44-.62,.54-.66,1.17-1.12,1.85-1.46,.17-.08,.35-.16,.53-.22,.43-.17,.87-.29,1.33-.37,.31-.06,.62-.11,.93-.15,.6-.07,1.2-.11,1.78-.16h.03c.11,0,.22,0,.32-.02,2.69-.19,5.41,.07,8.06,.74,4.26,1.08,8.37,3.2,11.8,6.29,2.89,2.61,5.37,5.96,7.71,9.43,1.09,1.62,2.17,3.28,3.03,5.13,.77,1.63,1.94,4.02,1.67,6.07Z"/><path d="M123.82,76.36c-.03,.56-.06,1.1-.1,1.66-.32,4.25-1.03,8.49-1.75,12.72-.1,.6-.65,4.09-1.46,2.66-.81-1.46-1.62-2.9-2.39-4.37-.9-1.78-1.96-3.44-3.01-5.07-2.12-3.32-4.39-6.45-6.79-9.39-1.37-1.66-2.78-3.26-4.3-4.67-2.83-2.62-6.13-4.91-9.35-6.43-.22-.1-.44-.18-.68-.28-3.8-1.62-7.91-2.08-11.92-1.52h-.03c-.62,.08-1.24,.18-1.86,.32l-.22,.06c-.22,.02-.49,.1-.75,.14-.4,.1-.81,.18-1.19,.14-.1,0-.21-.02-.31-.04h-.01s-.03,0-.04-.02c-.28-.08-.47-.32-.62-.62-.31-.66-.31-1.66-.19-2.38,.21-1.2,.75-2.16,1.19-3.22,1.31-3.04,1.66-6.77,.99-10.15-.13-.64-.29-1.26-.46-1.88,.01-.02,0-.02,0-.02-.43-1.68-.87-3.34-.69-5.05,.04-.32,.09-.66,.15-.98,.13-.76,.32-1.52,.55-2.24,.22-.76,.47-1.5,.71-2.24,.62-1.94,1.24-3.86,1.86-5.77,.74-2.32,1.41-4.37,3.34-5.07,.04,0,.09-.02,.13-.04,.09-.04,.19-.06,.29-.08,.13-.04,.27-.08,.41-.1,.41,.04,.81,.08,1.22,.14,.41,.06,.81,.12,1.21,.18,.41,.06,.81,.16,1.21,.24,.27,.06,.53,.1,.78,.18,.19,.04,.38,.08,.57,.14,.34,.08,.68,.16,1.02,.28,.32,.08,.63,.18,.94,.28,.34,.1,.68,.22,1.02,.36,.24,.08,.47,.16,.71,.26,.21,.08,.43,.16,.63,.26,.12,.02,.24,.08,.37,.14,.27,.12,.53,.24,.81,.36,.09,.02,.18,.08,.27,.12,.32,.14,.65,.3,.97,.46,.37,.18,.74,.38,1.1,.58,1.46,.78,2.87,1.68,4.26,2.7,.31,.24,.63,.48,.96,.72,.01,.02,.04,.04,.06,.06,.43,.32,.84,.66,1.25,1,.27,.22,.53,.46,.8,.7,.12,.1,.24,.22,.35,.32,.09,.08,.18,.16,.27,.22,.06,.08,.12,.12,.18,.18l.13,.12c.09,.08,.16,.16,.24,.22,.32,.3,.63,.6,.94,.92,.15,.14,.27,.28,.41,.42,.31,.32,.62,.64,.94,1,.16,.18,.32,.34,.47,.52,.04,.04,.07,.08,.1,.12,.09,.08,.18,.2,.27,.3l.04,.06s.06,.06,.07,.08c.5,.58,.99,1.16,1.47,1.78,.09,.12,.19,.24,.28,.36,.16,.2,.32,.4,.47,.62,.12,.16,.25,.32,.37,.48,.1,.14,.21,.28,.31,.42,.01,.02,.04,.06,.06,.08,.12,.16,.24,.34,.34,.5,.22,.28,.41,.58,.6,.86,.04,.06,.07,.1,.1,.16,.37,.54,.71,1.08,1.05,1.62,.35,.56,.69,1.12,1.02,1.7,.34,.58,.66,1.14,.97,1.74,.22,.42,.44,.82,.66,1.26,.01,.04,.04,.1,.07,.16,.31,.6,.59,1.2,.88,1.82,.41,.86,.8,1.76,1.16,2.68,2.06,5.07,3.49,10.75,4.01,16.54,.24,2.54,.24,5.05,.1,7.55Z"/><path d="M98.25,130.43c0,1.46-.03,2.92-.17,4.38-.04,.46-.11,.97-.39,1.27-.19,.2-.44,.25-.68,.28h-.03c-1.91,.23-3.77-.61-5.58-1.33-1.98-.78-3.94-1.58-5.87-2.57-8.08-4.14-17.47-12.97-17.8-25.85,0-.19,0-.37,0-.57,0-1.2,.59-1.32,1.22-1.8,.85-.64,1.38-1.63,1.76-2.76,0,0,.01-.02,.01-.03,.23-.66,.4-1.35,.55-2.06,0,0,0-.03,.01-.05,.19-.86,.37-1.72,.59-2.53,1.19-4.24,2.9-8.56,5.12-12.12,.56-.9,1.15-1.75,1.77-2.53,.34-.44,.72-.82,1.17-1.02h0s.08-.04,.12-.06c2.21-.75,3.83,1.83,5.19,3.76,2.44,3.47,5.17,6.56,7.05,10.67,2.77,6.02,4.52,12.86,5.34,19.87,.38,3.31,.39,6.56,.49,9.89,.05,1.71,.12,3.42,.12,5.13Z"/><path class="k" d="M114.09,109.9c-.66-1.16-2.02-4-3.21-4.07-.96-.06-1.13,2.1-1.27,2.98-.69,4.37-2.4,8.15-4.21,11.83-1.72,3.5-3.74,6.95-6.39,9.23l-.13,.12c-.21,.14-.41,.3-.62,.46-.38,.28-.75,.58-.97,1.08-.35,.74-.31,1.66-.31,2.5,0,.68-.01,1.38-.04,2.06,0,.1,.01,.22,.04,.3,.07,.24,.27,.4,.47,.36,.62-.08,1.47-.38,2.3-.76,.4-.24,.81-.5,1.21-.74,.04-.04,.09-.06,.15-.1,.04-.04,.09-.06,.13-.1,.37-.24,.74-.48,1.1-.74,.21-.14,.41-.3,.62-.44,.35-.26,.71-.52,1.06-.82,.27-.2,.55-.42,.81-.64,.25-.2,.47-.38,.71-.58,.09-.08,.19-.16,.29-.26,3.9-3.42,7.41-7.71,10.34-12.64v-.02c.16-.3,.27-.62,.32-.94,.57-2.64-1.34-6.23-2.4-8.05Z"/><path class="m" d="M80.38,80.57c0,.06-.04,.15-.12,.24-.08,.1-.2,.22-.33,.34h0c-.43,.39-1.03,.83-1.2,1.08-.8,1.15-1.61,2.38-2.29,3.65-2.19,4.07-3.96,8.72-5.17,13.49,0,.02,0,.04-.01,.05-.18,.69-.35,1.37-.55,2.06,0,0,0,.02-.01,.03-.46,1.6-1.06,3.13-2.06,4.25-.29,.32-.59,.61-.91,.87-1.73,1.42-3.84,1.95-5.88,2.05-6.35,.32-12.8-3.19-17.05-9.59-3.26-4.9-5.14-11.46-5.2-18.04-.01-.79,0-1.57,.05-2.34,0-.06,0-.11,0-.17,.08-1.17,.21-2.34,.4-3.48,.59-3.54,1.74-6.88,2.98-10.09,.96-2.47,2-4.9,3.25-7.12,1.64-2.89,3.66-5.4,5.93-7.37,.66-.57,1.33-1.1,2.03-1.58,.25-.18,.53-.34,.81-.31,.11,.02,.21,.06,.29,.13,.31,.22,.53,.7,.67,1.15,.5,1.58,.59,3.32,.98,4.94,.81,3.36,2.75,6.32,4.87,8.29,1.56,1.45,3.33,1.77,5.13,1.78h0c1.19,.02,2.39-.09,3.55-.1,1.35-.02,2.74-.17,3.99-.89,.91-.51,1.64-1.57,2.49-2.23,.45-.34,.94-.57,1.49-.57,.03,0,.07,0,.1,0,.09,0,1,.21,.96,.33-.07,.19-.15,.37-.25,.54-.03,.08-.08,.16-.12,.23-.33,.58-.74,1.09-1.09,1.65-.55,.84-.98,1.82-1.29,2.86h0c-.46,1.54-.65,3.22-.53,4.86,.21,2.76,1.28,5.38,2.92,7.07,.51,.52,1.11,1.08,1.16,1.94Z"/><g id="e"><path class="f" d="M82.49,51.69c0,3.74-.81,7.21-2.22,10.12-.03,.06-.05,.12-.09,.18-.9,1.84-2.04,3.44-3.35,4.72h0c-.92,.91-1.92,1.66-2.99,2.23-1.55,.83-3.25,1.29-5.02,1.29-7.55,0-13.67-8.3-13.67-18.54,0-1.01,.06-2.01,.18-2.98,1.05-8.82,6.69-15.56,13.49-15.56,3.54,0,6.77,1.83,9.19,4.82,2.75,3.39,4.48,8.29,4.48,13.72Z"/><ellipse class="j" cx="70.9" cy="52.52" rx="9.91" ry="13.44"/><ellipse class="g" cx="66.67" cy="52.52" rx="5.13" ry="6.95"/></g></g></g></g></svg>