<svg width="702" height="700" viewBox="0 0 702 700" fill="none" xmlns="http://www.w3.org/2000/svg">
<path d="M81.6667 0H58.3333V58.3333H23.3333V81.6667H58.3333V105H23.3333V128.333H58.3333V163.333H23.3333V186.667H58.3333V221.667H23.3333V245H58.3333V280H23.3333V303.333H58.3333V338.333H23.3333V361.667H58.3333V396.667H23.3333V420H58.3333V455H23.3333V478.333H58.3333V513.333H23.3333V536.667H58.3333V571.667H23.3333V595H58.3333V618.333H0V641.667H58.3333V700H81.6667V641.667H116.667V688.333H140V641.667H175V688.333H198.333V641.667H233.333V688.333H256.667V641.667H291.667V688.333H315V641.667H350V688.333H373.333V641.667H408.333V688.333H431.667V641.667H466.667V688.333H490V641.667H525V688.333H548.333V641.667H583.333V688.333H606.667V641.667H641.667V688.333H665V641.667H700V618.333H81.6667V0Z" fill="white"/>
<path d="M140 606.667C152.375 606.667 164.245 601.75 173 593C181.75 584.245 186.667 572.375 186.667 560C186.625 549.719 183.156 539.74 176.807 531.651L203.171 497.817H203.177C215.588 503.13 229.698 502.812 241.854 496.932C254.015 491.057 263.031 480.197 266.573 467.167C270.12 454.135 267.849 440.208 260.343 428.984L293.802 391.359C300.344 394.796 307.609 396.619 314.999 396.666C327.374 396.666 339.245 391.749 347.999 382.999C356.749 374.244 361.666 362.374 361.666 349.999C361.624 346.176 361.098 342.374 360.114 338.682L409.385 311.848C419.307 322.557 433.682 327.984 448.207 326.504C462.734 325.02 475.718 316.806 483.275 304.316C490.838 291.821 492.088 276.51 486.661 262.952L542.182 222.572L542.187 222.577C550.458 229.489 560.885 233.296 571.666 233.333C583.624 233.4 595.145 228.848 603.833 220.63C612.515 212.411 617.693 201.151 618.281 189.208C618.869 177.266 614.828 165.558 606.994 156.52L637.082 113.588C642.27 115.583 647.775 116.625 653.333 116.666C667.833 116.838 681.604 110.338 690.693 99.0357C699.781 87.7388 703.172 72.8904 699.896 58.765C696.615 44.6397 687.032 32.8064 673.896 26.661C660.761 20.5204 645.532 20.7548 632.589 27.2912C619.652 33.8328 610.428 45.9526 607.584 60.1712C604.735 74.3899 608.579 89.1299 618.006 100.145L587.918 143.077C582.73 141.082 577.225 140.04 571.667 139.998C556.209 139.931 541.725 147.551 533.037 160.337C524.344 173.124 522.583 189.394 528.339 203.744L472.817 244.124H472.812C464.547 237.197 454.119 233.379 443.333 233.332C430.959 233.332 419.088 238.249 410.333 246.999C401.583 255.754 396.667 267.624 396.667 279.999C396.708 283.822 397.234 287.624 398.219 291.316L348.948 318.15C338.183 306.655 322.334 301.379 306.823 304.123C291.312 306.873 278.244 317.274 272.078 331.768C265.916 346.263 267.494 362.894 276.275 375.966L242.817 413.591C236.286 410.174 229.035 408.372 221.666 408.331C209.291 408.331 197.421 413.247 188.666 421.997C179.916 430.753 174.999 442.623 174.999 454.997C175.041 465.279 178.51 475.257 184.859 483.347L158.495 517.18H158.49C145.604 511.597 130.886 512.107 118.422 518.581C105.958 525.055 97.0722 536.8 94.2282 550.554C91.3845 564.309 94.8897 578.612 103.77 589.497C112.645 600.377 125.953 606.685 139.999 606.664L140 606.667ZM653.333 46.6667C659.521 46.6667 665.459 49.1251 669.833 53.5C674.208 57.875 676.667 63.8126 676.667 70C676.667 76.1875 674.208 82.1251 669.833 86.5C665.459 90.875 659.521 93.3334 653.333 93.3334C647.146 93.3334 641.208 90.875 636.833 86.5C632.459 82.1251 630 76.1875 630 70C630 63.8126 632.459 57.875 636.833 53.5C641.208 49.1251 647.146 46.6667 653.333 46.6667ZM571.667 163.333C577.854 163.333 583.792 165.792 588.167 170.167C592.542 174.542 595 180.479 595 186.667C595 192.854 592.542 198.792 588.167 203.167C583.792 207.542 577.854 210 571.667 210C565.479 210 559.542 207.542 555.167 203.167C550.792 198.792 548.333 192.854 548.333 186.667C548.333 180.479 550.792 174.542 555.167 170.167C559.542 165.792 565.479 163.333 571.667 163.333ZM443.333 256.667C449.521 256.667 455.459 259.125 459.833 263.5C464.208 267.875 466.667 273.813 466.667 280C466.667 286.188 464.208 292.125 459.833 296.5C455.459 300.875 449.521 303.333 443.333 303.333C437.146 303.333 431.208 300.875 426.833 296.5C422.459 292.125 420 286.188 420 280C420 273.813 422.459 267.875 426.833 263.5C431.208 259.125 437.146 256.667 443.333 256.667ZM315 326.667C321.188 326.667 327.125 329.125 331.5 333.5C335.875 337.875 338.333 343.813 338.333 350C338.333 356.188 335.875 362.125 331.5 366.5C327.125 370.875 321.188 373.333 315 373.333C308.813 373.333 302.875 370.875 298.5 366.5C294.125 362.125 291.667 356.188 291.667 350C291.667 343.813 294.125 337.875 298.5 333.5C302.875 329.125 308.813 326.667 315 326.667ZM221.667 431.667C227.854 431.667 233.792 434.125 238.167 438.5C242.542 442.875 245 448.813 245 455C245 461.188 242.542 467.125 238.167 471.5C233.792 475.875 227.854 478.333 221.667 478.333C215.479 478.333 209.542 475.875 205.167 471.5C200.792 467.125 198.333 461.188 198.333 455C198.333 448.813 200.792 442.875 205.167 438.5C209.542 434.125 215.479 431.667 221.667 431.667ZM140 536.667C146.188 536.667 152.125 539.125 156.5 543.5C160.875 547.875 163.333 553.813 163.333 560C163.333 566.188 160.875 572.125 156.5 576.5C152.125 580.875 146.188 583.333 140 583.333C133.813 583.333 127.875 580.875 123.5 576.5C119.125 572.125 116.667 566.188 116.667 560C116.667 553.813 119.125 547.875 123.5 543.5C127.875 539.125 133.813 536.667 140 536.667Z" fill="white"/>
</svg>
